<?xml version="1.0" encoding="utf-8"?>
<!-- Generator: Adobe Illustrator 19.2.0, SVG Export Plug-In . SVG Version: 6.00 Build 0)  -->
<svg version="1.1" id="Layer_1" xmlns="http://www.w3.org/2000/svg" xmlns:xlink="http://www.w3.org/1999/xlink" x="0px" y="0px"
	 viewBox="0 0 300 300" style="enable-background:new 0 0 300 300;" xml:space="preserve">
<metadata><?xpacket begin="﻿" id="W5M0MpCehiHzreSzNTczkc9d"?>
<x:xmpmeta xmlns:x="adobe:ns:meta/" x:xmptk="Adobe XMP Core 5.6-c111 79.158366, 2015/09/25-01:12:00        ">
   <rdf:RDF xmlns:rdf="http://www.w3.org/1999/02/22-rdf-syntax-ns#">
      <rdf:Description rdf:about=""/>
   </rdf:RDF>
</x:xmpmeta>
                                                                                                    
                                                                                                    
                                                                                                    
                                                                                                    
                                                                                                    
                                                                                                    
                                                                                                    
                                                                                                    
                                                                                                    
                                                                                                    
                                                                                                    
                                                                                                    
                                                                                                    
                                                                                                    
                                                                                                    
                                                                                                    
                                                                                                    
                                                                                                    
                                                                                                    
                                                                                                    
                           
<?xpacket end="w"?></metadata>
<style type="text/css">
	.st0{fill:#FFFFFF;}
</style>
<g>
	<circle cx="150" cy="150.3" r="150"/>
	<g>
		<path class="st0" d="M132.9,66.7c0.8-0.6,1.8-1.2,3.1-1.8c1.3-0.6,3.1-0.9,5.4-0.9h23.2c3.3,0,6.1,1.1,8.2,3.4
			c2.2,2.3,3.2,5.1,3.2,8.7v148.1c0,3.7-1.1,6.7-3.2,9c-2.2,2.3-4.9,3.4-8.2,3.4h-14.1c-3.3,0-6.1-1.1-8.2-3.4
			c-2.2-2.3-3.2-5.2-3.2-9v-114H135l-27.6,23.5c-2.5,1.6-5.4,2.4-8.5,2.4c-2.3,0-4.5-0.6-6.5-1.8c-2-1.2-2.9-3.2-2.9-6.2v-22
			c0-2.9,0.7-5.2,2.2-6.9c1.5-1.7,3.3-3.3,5.4-4.8l2.4-1.8L132.9,66.7z"/>
	</g>
</g>
</svg>
