<?xml version="1.0" encoding="utf-8"?>
<!-- Generator: Adobe Illustrator 19.2.0, SVG Export Plug-In . SVG Version: 6.00 Build 0)  -->
<svg version="1.1" id="Layer_1" xmlns="http://www.w3.org/2000/svg" xmlns:xlink="http://www.w3.org/1999/xlink" x="0px" y="0px"
	 viewBox="0 0 300 55" style="enable-background:new 0 0 300 55;" xml:space="preserve">
<metadata><?xpacket begin="﻿" id="W5M0MpCehiHzreSzNTczkc9d"?>
<x:xmpmeta xmlns:x="adobe:ns:meta/" x:xmptk="Adobe XMP Core 5.6-c111 79.158366, 2015/09/25-01:12:00        ">
   <rdf:RDF xmlns:rdf="http://www.w3.org/1999/02/22-rdf-syntax-ns#">
      <rdf:Description rdf:about=""/>
   </rdf:RDF>
</x:xmpmeta>
                                                                                                    
                                                                                                    
                                                                                                    
                                                                                                    
                                                                                                    
                                                                                                    
                                                                                                    
                                                                                                    
                                                                                                    
                                                                                                    
                                                                                                    
                                                                                                    
                                                                                                    
                                                                                                    
                                                                                                    
                                                                                                    
                                                                                                    
                                                                                                    
                                                                                                    
                                                                                                    
                           
<?xpacket end="w"?></metadata>
<style type="text/css">
	.st0{fill:#FFFFFF;}
</style>
<g>
	<g>
		<path d="M17.6,55c-2.9,0-5.5-0.4-7.7-1.3c-2.2-0.9-4-2-5.5-3.4c-1.5-1.4-2.6-3-3.3-4.8C0.4,43.6,0,41.8,0,40V15.1
			c0-1.8,0.4-3.7,1.1-5.5c0.7-1.8,1.8-3.4,3.3-4.8c1.5-1.4,3.3-2.5,5.5-3.4C12.1,0.4,14.6,0,17.6,0c2.9,0,5.5,0.4,7.7,1.3
			c2.2,0.9,4,2,5.5,3.4c1.5,1.4,2.6,3,3.3,4.8c0.7,1.8,1.1,3.7,1.1,5.5V40c0,1.8-0.4,3.6-1.1,5.4c-0.7,1.8-1.8,3.4-3.3,4.8
			c-1.5,1.4-3.3,2.6-5.5,3.4C23.1,54.6,20.5,55,17.6,55z M17.6,44.8c1.4,0,2.7-0.4,4-1.2c1.2-0.8,1.9-2,1.9-3.6V15.2
			c0-1.6-0.6-2.9-1.9-3.7c-1.3-0.8-2.6-1.2-4-1.2c-1.4,0-2.7,0.4-4,1.2c-1.3,0.8-1.9,2-1.9,3.7v24.9c0,1.6,0.6,2.8,1.9,3.6
			C14.8,44.4,16.2,44.8,17.6,44.8z"/>
		<path d="M46,54.4c-1,0-1.9-0.4-2.6-1.1c-0.7-0.7-1-1.6-1-2.8V4.5c0-1.1,0.3-2,1-2.7C44.1,1.1,45,0.7,46,0.7h14.3
			c2.9,0,5.5,0.5,7.8,1.4c2.3,0.9,4.2,2.1,5.8,3.7c1.6,1.5,2.8,3.3,3.6,5.2c0.8,2,1.2,4,1.2,6v21c0,2.3-0.4,4.5-1.2,6.5
			c-0.8,2-2,3.8-3.6,5.2c-1.6,1.5-3.5,2.6-5.8,3.5c-2.3,0.9-4.9,1.3-7.8,1.3H46z M60.3,43.8c0.7,0,1.5-0.1,2.3-0.3
			c0.8-0.2,1.6-0.5,2.3-1c0.7-0.5,1.3-1.1,1.7-1.9c0.4-0.8,0.6-1.8,0.6-3V18.8c0-2.6-0.6-4.4-1.7-5.6c-1.2-1.2-2.9-1.8-5.2-1.8H54
			v32.5H60.3z"/>
		<path d="M89.7,54.4c-1,0-1.9-0.4-2.6-1.1c-0.7-0.7-1-1.6-1-2.8V4.5c0-1.1,0.3-2,1-2.7c0.7-0.7,1.5-1.1,2.6-1.1h14.3
			c2.9,0,5.5,0.5,7.8,1.4c2.3,0.9,4.2,2.1,5.8,3.7c1.6,1.5,2.8,3.3,3.6,5.2c0.8,2,1.2,4,1.2,6v21c0,2.3-0.4,4.5-1.2,6.5
			c-0.8,2-2,3.8-3.6,5.2c-1.6,1.5-3.5,2.6-5.8,3.5c-2.3,0.9-4.9,1.3-7.8,1.3H89.7z M103.9,43.8c0.7,0,1.5-0.1,2.3-0.3
			c0.8-0.2,1.6-0.5,2.3-1c0.7-0.5,1.3-1.1,1.7-1.9c0.4-0.8,0.6-1.8,0.6-3V18.8c0-2.6-0.6-4.4-1.7-5.6c-1.2-1.2-2.9-1.8-5.2-1.8h-6.3
			v32.5H103.9z"/>
		<path d="M198.3,55c-2.9,0-5.5-0.4-7.7-1.3s-4-2-5.5-3.4c-1.5-1.4-2.6-3-3.3-4.8c-0.7-1.8-1.1-3.6-1.1-5.4V15.1
			c0-1.8,0.4-3.7,1.1-5.5c0.7-1.8,1.8-3.4,3.3-4.8c1.5-1.4,3.3-2.5,5.5-3.4c2.2-0.9,4.8-1.3,7.7-1.3c2.9,0,5.5,0.4,7.7,1.3
			c2.2,0.9,4,2,5.5,3.4c1.5,1.4,2.6,3,3.3,4.8c0.7,1.8,1.1,3.7,1.1,5.5V40c0,1.8-0.4,3.6-1.1,5.4c-0.7,1.8-1.8,3.4-3.3,4.8
			c-1.5,1.4-3.3,2.6-5.5,3.4C203.8,54.6,201.2,55,198.3,55z M198.3,44.8c1.4,0,2.7-0.4,4-1.2c1.2-0.8,1.9-2,1.9-3.6V15.2
			c0-1.6-0.6-2.9-1.9-3.7c-1.2-0.8-2.6-1.2-4-1.2c-1.4,0-2.7,0.4-4,1.2c-1.3,0.8-1.9,2-1.9,3.7v24.9c0,1.6,0.6,2.8,1.9,3.6
			C195.5,44.4,196.9,44.8,198.3,44.8z"/>
		<path d="M241.2,55c-2.9,0-5.5-0.4-7.7-1.3c-2.2-0.9-4.1-2-5.6-3.4c-1.5-1.4-2.7-3-3.5-4.8c-0.8-1.8-1.2-3.6-1.2-5.4V4.5
			c0-1.1,0.3-2,1-2.7c0.7-0.7,1.5-1.1,2.6-1.1h4.4c1,0,1.9,0.4,2.6,1.1c0.7,0.7,1,1.6,1,2.7v35c0,1,0.2,1.9,0.6,2.6
			c0.4,0.7,0.9,1.3,1.6,1.6c0.6,0.4,1.3,0.7,2.1,0.9c0.8,0.2,1.5,0.3,2.2,0.3s1.5-0.1,2.2-0.3s1.5-0.5,2.1-0.9
			c0.6-0.4,1.2-0.9,1.6-1.6c0.4-0.7,0.6-1.6,0.6-2.6v-35c0-1.1,0.3-2,1-2.7c0.7-0.7,1.5-1.1,2.6-1.1h4.4c1,0,1.9,0.4,2.6,1.1
			c0.7,0.7,1,1.6,1,2.7V40c0,1.8-0.4,3.6-1.2,5.4c-0.8,1.8-2,3.4-3.5,4.8c-1.5,1.4-3.4,2.6-5.6,3.4C246.7,54.6,244.1,55,241.2,55z"
			/>
		<path d="M296.2,0.7c1.1,0,2,0.3,2.7,1c0.7,0.7,1.1,1.6,1.1,2.7v3.2c0,1.1-0.4,2-1.1,2.7c-0.7,0.7-1.6,1.1-2.7,1.1h-8v39.3
			c0,1.2-0.3,2.1-1,2.7c-0.7,0.7-1.6,1-2.7,1h-4.3c-1,0-1.9-0.3-2.6-1c-0.7-0.7-1-1.6-1-2.7V11.4h-7.9c-1.1,0-2-0.4-2.7-1.1
			c-0.7-0.7-1.1-1.6-1.1-2.7V4.4c0-1.1,0.3-2,1.1-2.7c0.7-0.7,1.6-1,2.7-1H296.2z"/>
	</g>
	<circle cx="151.1" cy="28.7" r="24.3"/>
	<g>
		<path class="st0" d="M148.3,15.1c0.1-0.1,0.3-0.2,0.5-0.3c0.2-0.1,0.5-0.1,0.9-0.1h3.8c0.5,0,1,0.2,1.3,0.5
			c0.3,0.4,0.5,0.8,0.5,1.4v24c0,0.6-0.2,1.1-0.5,1.5c-0.3,0.4-0.8,0.5-1.3,0.5h-2.3c-0.5,0-1-0.2-1.3-0.5c-0.4-0.4-0.5-0.8-0.5-1.5
			V22.2h-0.7l-4.5,3.8c-0.4,0.3-0.9,0.4-1.4,0.4c-0.4,0-0.7-0.1-1-0.3c-0.3-0.2-0.5-0.5-0.5-1v-3.6c0-0.5,0.1-0.9,0.4-1.1
			c0.2-0.3,0.5-0.5,0.9-0.8l0.4-0.3L148.3,15.1z"/>
	</g>
</g>
</svg>
